{"title":"Her 2013 DVDSCR XviD MP3-RARBG","uid":9453395,"size":1150114611,"categoryP":"video","categoryS":"movies","magnet":"?xt=urn:btih:e82ceff7c6731c433731ad060e6c495827e64ac5&amp;dn=Her+2013+DVDSCR+XviD+MP3-RARBG&amp;tr=udp%3A%2F%2Ftracker.openbittorrent.com%3A80&amp;tr=udp%3A%2F%2Fopen.demonii.com%3A1337&amp;tr=udp%3A%2F%2Ftracker.coppersurfer.tk%3A6969&amp;tr=udp%3A%2F%2Fexodus.desync.com%3A6969","seeders":31,"leechers":1,"uploader":"HeroMaster","files":-1,"time":1389219277,"description":":::::::: RARBG PRESENTS :::::::::\n\n &lt;a href=&quot;\nhttp://i.imgur.com/mKucYx7.png&quot; rel=&quot;nofollow&quot; target=&quot;_NEW&quot;&gt;\nhttp://i.imgur.com/mKucYx7.png&lt;/a&gt;\n\n\n:::: Her 2013 DVDSCR XviD MP3-RARBG ::::\n\n\n::Information::\n\n\nHer 2013 DVDSCR XviD MP3-RARBG\n\n &lt;a href=&quot;\nhttp://www.imdb.com/title/tt1798709/&quot; rel=&quot;nofollow&quot; target=&quot;_NEW&quot;&gt;\nhttp://www.imdb.com/title/tt1798709/&lt;/a&gt;\n\n\nInfo:\nFormat                                   : AVI\nFormat/Info                              : Audio Video Interleave\nFormat profile                           : OpenDML\nFile size                                : 1.07 GiB\nDuration                                 : 2h 6mn\nOverall bit rate                         : 1 210 Kbps\nMovie name                               : Downloaded from RARBG.COM\nWriting application                      : Lavf55.21.100\nComment                                  : Downloaded from RARBG.COM\n\nVideo\nID                                       : 0\nFormat                                   : xvid\nCodec ID                                 : xvid\nDuration                                 : 2h 6mn\nBit rate                                 : 1 000 Kbps\nWidth                                    : 720 pixels\nHeight                                   : 464 pixels\nDisplay aspect ratio                     : 1.85:1\nFrame rate                               : 29.970 fps\nBits/(Pixel*Frame)                       : 0.100\nStream size                              : 906 MiB (83%)\n\nAudio\nID                                       : 1\nFormat                                   : MPEG Audio\nFormat version                           : Version 1\nFormat profile                           : Layer 3\nMode                                     : Joint stereo\nMode extension                           : MS Stereo\nCodec ID                                 : 55\nCodec ID/Hint                            : MP3\nDuration                                 : 2h 6mn\nBit rate mode                            : Constant\nBit rate                                 : 192 Kbps\nChannel(s)                               : 2 channels\nSampling rate                            : 48.0 KHz\nCompression mode                         : Lossy\nStream size                              : 174 MiB (16%)\nAlignment                                : Aligned on interleaves\nInterleave, duration                     : 24 ms (0.72 video frame)\nWriting library                          : LAME3.99.5\n\n\n::Greetz and Respect::\n\n\nALL CREDIT Goes to Scene for Encoding and ABG for Distribution.\n\n\n::Poster::\n\n &lt;a href=&quot;\nhttp://i.imgur.com/XtgZJL4.jpg&quot; rel=&quot;nofollow&quot; target=&quot;_NEW&quot;&gt;\nhttp://i.imgur.com/XtgZJL4.jpg&lt;/a&gt;\n\n\n::Screenshots::\n\n &lt;a href=&quot;\nhttp://i.imgur.com/gDu2bQg.png&quot; rel=&quot;nofollow&quot; target=&quot;_NEW&quot;&gt;\nhttp://i.imgur.com/gDu2bQg.png&lt;/a&gt;\n\n &lt;a href=&quot;\nhttp://i.imgur.com/qKKSBGJ.png&quot; rel=&quot;nofollow&quot; target=&quot;_NEW&quot;&gt;\nhttp://i.imgur.com/qKKSBGJ.png&lt;/a&gt;\n\n &lt;a href=&quot;\nhttp://i.imgur.com/QxHoO9v.png&quot; rel=&quot;nofollow&quot; target=&quot;_NEW&quot;&gt;\nhttp://i.imgur.com/QxHoO9v.png&lt;/a&gt;\n\n\nSEED AND ENJOY!","torrent":{"xt":"urn:btih:e82ceff7c6731c433731ad060e6c495827e64ac5","amp;dn":"Her+2013+DVDSCR+XviD+MP3-RARBG","amp;tr":["udp%3A%2F%2Ftracker.openbittorrent.com%3A80","udp%3A%2F%2Fopen.demonii.com%3A1337","udp%3A%2F%2Ftracker.coppersurfer.tk%3A6969","udp%3A%2F%2Fexodus.desync.com%3A6969"],"infoHash":"e82ceff7c6731c433731ad060e6c495827e64ac5","infoHashBuffer":{"type":"Buffer","data":[232,44,239,247,198,115,28,67,55,49,173,6,14,108,73,88,39,230,74,197]},"announce":[],"urlList":[]}}